# xmcd
#
# Track frame offsets: 
#        150
#        17681
#        34498
#        50903
#        65847
#        83367
#        96461
#        108465
#        119284
#        135960
#        150565
#        166786
#        186650
#
# Disc length: 2695 seconds
#
# Revision: 0
# Processed by: cddbd v1.5.2PL0 Copyright (c) Steve Scherf et al.
# Submitted via: ExactAudioCopy v1.0b4
#
DISCID=b00a850d
DTITLE=Moreland and Arbuckle - 7 Cities
DYEAR=2013
DGENRE=Blues Rock
TTITLE0=Quivira
TTITLE1=Kowtow
TTITLE2=The Devil and Me
TTITLE3=Tall Boogie
TTITLE4=Broken Sunshine
TTITLE5=Red Bricks
TTITLE6=Stranger Than Most
TTITLE7=Road Blind
TTITLE8=Bite Your Tongue
TTITLE9=Everybody Wants to Rule the World
TTITLE10=Waste Away
TTITLE11=Time Ain't Long
TTITLE12=Modern Boy
EXTD=
EXTT0=
EXTT1=
EXTT2=
EXTT3=
EXTT4=
EXTT5=
EXTT6=
EXTT7=
EXTT8=
EXTT9=
EXTT10=
EXTT11=
EXTT12=
PLAYORDER=
